# xmcd
#
# Track frame offsets:
#	150
#	16420
#	32357
#	49092
#	63312
#	76535
#	94050
#	110637
#	126360
#	141045
#	158895
#	172642
#	190107
#	208170
#	223512
#	239005
#	254652
#	269872
#	282095
#	298852
#	317582
#
# Disc length: 4495 seconds
#
# Revision: 10
# Processed by: cddbd v1.5.2PL0 Copyright (c) Steve Scherf et al.
# Submitted via: EZCDAudioConverter 8.2.2.1
#
DISCID=36118d15
DTITLE=LEANDRO and LEONARDO - DOSE DUPLA - VOL.01 [CD C063010314-2) CHANTECLER
DYEAR=1995
DGENRE=SERTANEJO
TTITLE0=QUEM SERÁ ESSA MULHER (BY GILMAR SINISTRO)
TTITLE1=LÁGRIMAS DO CORAÇÃO (BY GILMAR SINISTRO)
TTITLE2=QUEBRA ESSE GELO (BY GILMAR SINISTRO)
TTITLE3=QUARTO NEGRO (BY GILMAR SINISTRO)
TTITLE4=PARAÍSO (BY GILMAR SINISTRO)
TTITLE5=É POR VOCÊ QUE CANTO (THE SOUND OF SILENCE) (BY GILMAR SINISTRO)
TTITLE6=AQUELES OLHOS (BY GILMAR SINISTRO)
TTITLE7=ENTRE TAPAS E BEIJOS (BY GILMAR SINISTRO)
TTITLE8=TEU OLHAR (BY GILMAR SINISTRO)
TTITLE9=CAI NA REAL (BY GILMAR SINISTRO)
TTITLE10=CADÊ VOCÊ (BY GILMAR SINISTRO)
TTITLE11=TALVEZ VOCÊ SE LEMBRE (BY GILMAR SINISTRO)
TTITLE12=O CHEIRO DA MAÇÃ (BY GILMAR SINISTRO)
TTITLE13=CORAÇÃO QUER TE ENCONTRAR (BY GILMAR SINISTRO)
TTITLE14=MAIS UMA VEZ SOZINHO (MARCAS DE AMOR) (BY GILMAR SINISTRO)
TTITLE15=PRA NUNCA DIZER ADEUS (BY GILMAR SINISTRO)
TTITLE16=PENSE EM MIM (BY GILMAR SINISTRO)
TTITLE17=SÓ FAZENDO AMOR (BY GILMAR SINISTRO)
TTITLE18=VOCÊ AINDA VAI VOLTAR (BY GILMAR SINISTRO)
TTITLE19=DESCULPE, MAS EU VOU CHORAR (BY GILMAR SINISTRO)
TTITLE20=TALISMÃ (BY GILMAR SINISTRO)
EXTD=
EXTT0=
EXTT1=
EXTT2=
EXTT3=
EXTT4=
EXTT5=
EXTT6=
EXTT7=
EXTT8=
EXTT9=
EXTT10=
EXTT11=
EXTT12=
EXTT13=
EXTT14=
EXTT15=
EXTT16=
EXTT17=
EXTT18=
EXTT19=
EXTT20=
PLAYORDER=
